# xmcd
#
# Track frame offsets:
#	150
#	17020
#	37787
#	84390
#	107330
#	140647
#	173407
#	211280
#	251907
#	291407
#	311207
#
# Disc length: 4547 seconds
#
# Revision: 1
# Processed by: cddbd v1.4PL0 Copyright (c) Steve Scherf et al.
# Submitted via: audiograbber 1.80
#
DISCID=9211c10b
DTITLE=King, Albert - The Albert King Collection II
DYEAR=1900
DGENRE=
TTITLE0=Watermelon Man
TTITLE1=Don't Burn Down the Bridge
TTITLE2=Blues at Sunrise
TTITLE3=That's What the Blues is All About
TTITLE4=Stormy Monday
TTITLE5=Kansas City
TTITLE6=I'm Gonna Call You as Soon as the Sun Goes Down
TTITLE7=As The Years Go Passing By
TTITLE8=Matchbox Holds My Clothes
TTITLE9=Overall Junction
TTITLE10=I'll Play the Blues for You
EXTD=
EXTT0=
EXTT1=
EXTT2=
EXTT3=
EXTT4=
EXTT5=
EXTT6=
EXTT7=
EXTT8=
EXTT9=
EXTT10=
PLAYORDER=
